<?xml version="1.0" encoding="UTF-8"?>
<svg viewBox="0 0 512 512" version="1.1" xmlns="http://www.w3.org/2000/svg" xmlns:xlink="http://www.w3.org/1999/xlink">
	<path fill="#000000" d="M 256 0.443 C 114.873 0.443 0.443 117.839 0.443 262.503 C 0.443 378.302 73.687 476.418 175.226 511.101 C 176.65 511.41 178.104 511.563 179.561 511.557 C 189.03 511.557 192.681 504.598 192.681 498.551 C 192.681 492.276 192.453 475.848 192.339 453.943 C 183.885 455.924 175.237 456.958 166.555 457.023 C 117.383 457.023 106.202 418.804 106.202 418.804 C 94.565 388.57 77.794 380.47 77.794 380.47 C 55.547 364.84 77.68 364.384 79.392 364.384 L 79.506 364.384 C 105.176 366.665 118.638 391.537 118.638 391.537 C 131.416 413.898 148.529 420.173 163.817 420.173 C 173.925 419.971 183.878 417.638 193.023 413.327 C 195.305 396.442 201.922 384.919 209.224 378.302 C 152.522 371.685 92.854 349.21 92.854 248.812 C 92.854 220.176 102.78 196.788 119.094 178.534 C 116.47 171.917 107.686 145.22 121.604 109.169 C 123.471 108.722 125.39 108.53 127.309 108.598 C 136.55 108.598 157.428 112.135 191.883 136.093 C 233.748 124.38 278.024 124.38 319.889 136.093 C 354.344 112.135 375.222 108.598 384.463 108.598 C 386.382 108.53 388.301 108.722 390.168 109.169 C 404.086 145.22 395.302 171.917 392.677 178.534 C 408.992 196.902 418.918 220.29 418.918 248.812 C 418.918 349.438 359.136 371.571 302.206 378.074 C 311.333 386.174 319.547 402.147 319.547 426.562 C 319.547 461.587 319.205 489.88 319.205 498.437 C 319.205 504.598 322.742 511.557 332.211 511.557 C 333.744 511.564 335.273 511.411 336.774 511.101 C 438.427 476.418 511.557 378.188 511.557 262.503 C 511.557 117.839 397.127 0.443 256 0.443 Z"></path>
</svg>