<svg xmlns="http://www.w3.org/2000/svg" viewBox="0 0 512 512"><path d="M256 .443C114.873.443.443 117.839.443 262.503c0 115.799 73.244 213.915 174.783 248.598 1.424.309 2.878.462 4.335.456 9.469 0 13.12-6.959 13.12-13.006 0-6.275-.228-22.703-.342-44.608a116.85 116.85 0 0 1-25.784 3.08c-49.172 0-60.353-38.219-60.353-38.219-11.637-30.234-28.408-38.334-28.408-38.334-22.247-15.63-.114-16.086 1.598-16.086h.114c25.67 2.281 39.132 27.153 39.132 27.153 12.778 22.361 29.891 28.636 45.179 28.636a71.864 71.864 0 0 0 29.206-6.846c2.282-16.885 8.899-28.408 16.201-35.025-56.702-6.617-116.37-29.092-116.37-129.49 0-28.636 9.926-52.024 26.24-70.278-2.624-6.617-11.408-33.314 2.51-69.365a21.266 21.266 0 0 1 5.705-.571c9.241 0 30.119 3.537 64.574 27.495a237.546 237.546 0 0 1 128.006 0c34.455-23.958 55.333-27.495 64.574-27.495a21.266 21.266 0 0 1 5.705.571c13.918 36.051 5.134 62.748 2.509 69.365 16.315 18.368 26.241 41.756 26.241 70.278 0 100.626-59.782 122.759-116.712 129.262 9.127 8.1 17.341 24.073 17.341 48.488 0 35.025-.342 63.318-.342 71.875 0 6.161 3.537 13.12 13.006 13.12a22.06 22.06 0 0 0 4.563-.456c101.653-34.683 174.783-132.913 174.783-248.598C511.557 117.839 397.127.443 256 .443Z"/></svg>