<svg xmlns="http://www.w3.org/2000/svg" xml:space="preserve" style="enable-background:new 0 0 512 512" viewBox="0 0 512 512"><path d="M511.9 256c0 141.4-114.6 255.9-255.9 255.9S.1 397.4.1 256 114.6.1 256 .1 511.9 114.6 511.9 256zm-415 11.4c-1.1 8.8 11.6 11.6 27.7 16.8 13.1 4.2 30.6 9.2 39.8 9.4 8.3.2 17.5-3.2 27.8-10.3 69.7-47.1 105.7-70.8 108-71.4 1.6-.4 3.8-.8 5.3.5s1.3 3.8 1.2 4.5c-1.3 5.4-66.8 65-70.5 68.9-14.4 15-30.8 24.1-5.5 40.8 21.9 14.4 34.6 23.6 57.1 38.4 14.4 9.4 25.7 20.6 40.5 19.3 6.8-.6 13.9-7.1 17.5-26.2 8.5-45.3 25.1-143.5 29-184 .3-3.5-.1-8.1-.4-10.1-.3-2-1.1-4.8-3.6-6.9-3.1-2.5-7.8-3-9.9-3-9.6.2-24.4 5.3-95.5 34.9-24.9 10.4-74.6 31.8-149.3 64.3-12.3 4.8-18.7 9.5-19.2 14.1z"/></svg>