<svg xmlns="http://www.w3.org/2000/svg" xml:space="preserve" viewBox="0 0 512 512"><circle cx="140.563" cy="244.134" r="9.484"/><path d="M438.633 199.94a8.248 8.248 0 0 0-8.248 8.248v19.68c0 4.555 3.692 8.248 8.248 8.248s8.248-3.693 8.248-8.248v-19.68a8.248 8.248 0 0 0-8.248-8.248zm37.219 0a8.248 8.248 0 0 0-8.248 8.248v19.68a8.248 8.248 0 0 0 16.496 0v-19.68a8.248 8.248 0 0 0-8.248-8.248z"/><path d="M492.7 182.699a125.378 125.378 0 0 0-15.636-35.787c6.389-23.12 5.81-53.715-10.428-70.139a8.192 8.192 0 0 0-1.618-1.271l.001-.001c-11.835-7.111-28.055-8.973-45.675-5.243-14.677 3.107-29.155 9.877-40.282 18.757-2.65-.17-5.307-.284-7.972-.284-6.208 0-12.424.465-18.538 1.37-4.527-3.998-9.433-7.653-14.534-10.782-16.205-9.941-32.644-13.572-45.973-10.082a8.24 8.24 0 0 0-1.909.765l-.001-.001c-12.149 6.733-20.764 19.039-24.914 35.585-2.749 10.962-3.327 23.011-1.738 34.783H161.458c-34.163 0-65.162 13.798-87.725 36.11-4.883-8.2-13.834-13.709-24.051-13.709a27.844 27.844 0 0 0-17.76 6.377c-1.172-4.104-5.318-6.682-9.575-5.81C9.398 165.984 0 177.511 0 190.742c0 15.425 12.55 27.975 27.975 27.975H45.6c-5.79 14.377-8.984 30.066-8.984 46.491 0 30.975 11.326 60.465 31.96 83.414v87.19a8.248 8.248 0 0 0 8.248 8.248h52.891a8.254 8.254 0 0 0 5.833-2.416l1.833-1.834 1.833 1.834a8.247 8.247 0 0 0 5.833 2.416h35.674a8.254 8.254 0 0 0 5.833-2.416l1.833-1.834 1.835 1.834a8.248 8.248 0 0 0 5.832 2.415h5.125a8.248 8.248 0 0 0 8.248-8.248v-45.762H235v45.762a8.248 8.248 0 0 0 8.248 8.248h52.892c2.187 0 4.285-.87 5.833-2.416l1.832-1.833 1.833 1.833a8.247 8.247 0 0 0 5.833 2.416h35.676a8.251 8.251 0 0 0 5.832-2.415l1.835-1.834 1.835 1.834a8.246 8.246 0 0 0 5.832 2.415h5.123a8.248 8.248 0 0 0 8.248-8.248v-92.983c.777-.975 1.545-1.957 2.293-2.956a125.452 125.452 0 0 0 111.916-84.93c13.063-7.139 21.944-21.008 21.944-36.915-.005-14.804-7.705-27.838-19.305-35.328zM23.836 201.438c-4.289-1.667-7.34-5.827-7.34-10.697 0-4.79 2.998-9.032 7.347-10.712a27.83 27.83 0 0 0-2.136 10.712 27.777 27.777 0 0 0 2.129 10.697zM456.423 90.087c6.093 7.676 9.682 22.204 7.418 39.573-4.289-4.702-8.926-9.108-13.912-13.129a124.865 124.865 0 0 0-21.832-14.107c11.446-8.517 21.629-13.017 28.326-12.337zm-34.569-3.545c-3.51 2.441-7.228 5.313-11.15 8.64a126.83 126.83 0 0 0-7.352-2.214 79.241 79.241 0 0 1 18.502-6.426zm-123.369-1.819a26.705 26.705 0 0 1 4.112-.308c15.713 0 37.193 12.829 50.137 29.897.032.092-.002.197-.065.231l-49.824 27.378a.599.599 0 0 1-.166.056c-4.718-11.509-12.434-45.698-4.194-57.254zM38.201 190.742c0-6.33 5.151-11.48 11.48-11.48 6.33 0 11.48 5.15 11.48 11.48 0 .08-.015.158-.018.238a125.363 125.363 0 0 0-6.865 10.281 11.48 11.48 0 0 1-4.598.962c-6.328-.001-11.479-5.151-11.479-11.481zm154.728 230.519a8.252 8.252 0 0 0-10.377 1.054l-5.249 5.25h-18.885v-37.552c1.017.025 2.03.037 3.038.037h31.472v31.211zm166.423 0c-3.202-2.116-7.555-1.767-10.374 1.054l-5.251 5.25h-18.886v-46.578c12.535-5.083 24.219-12.263 34.511-21.086v61.36zm14.268-97.715a8.243 8.243 0 0 0-6.578 3.53c-12.973 18.614-31.855 32.972-53.171 40.426a8.248 8.248 0 0 0-5.524 7.786v45.978a8.243 8.243 0 0 0-4.545-1.365c-2.187 0-4.285.87-5.833 2.416l-5.248 5.249h-41.228v-45.762a8.248 8.248 0 0 0-8.248-8.248h-81.788c-3.456 0-6.987-.17-10.498-.508a8.25 8.25 0 0 0-9.036 8.21v40.005a8.25 8.25 0 0 0-10.375 1.052l-5.249 5.25H85.071v-82.167a8.243 8.243 0 0 0-2.262-5.674c-19.152-20.203-29.699-46.667-29.699-74.516 0-59.742 48.604-108.347 108.346-108.347h111.98a8.25 8.25 0 0 0 8.004-10.237c-2.236-8.995-2.86-19.016-1.728-28.463 2.184 14.168 6.383 27.031 8.068 30.943 2.456 5.697 8.247 9.38 14.75 9.38h.001c2.912 0 5.783-.739 8.279-2.122l49.828-27.379c8.047-4.464 10.967-14.646 6.499-22.712-.108-.192-.315-.54-.449-.762-.037-.064-.082-.121-.122-.184a108.24 108.24 0 0 1 4.521-.102c25.218 0 48.898 8.35 68.484 24.146 8.876 7.159 16.523 15.666 22.728 25.096a9.34 9.34 0 0 0-4.464-1.127c-5.178 0-9.377 4.2-9.377 9.38s4.199 9.38 9.377 9.38c5.183 0 9.38-4.2 9.38-9.38l-.001-.023a109.267 109.267 0 0 1 6.131 13.442 42.619 42.619 0 0 0-3.386-.148H414.26c-23.179 0-42.037 18.858-42.037 42.039 0 23.18 18.857 42.037 42.037 42.037h55.699c.11 0 .216-.008.324-.009a108.975 108.975 0 0 1-96.663 63.49zm26.163-84.492c-6.675-4.612-11.062-12.314-11.062-21.025s4.386-16.413 11.062-21.025a41.758 41.758 0 0 0-5.659 21.025 41.76 41.76 0 0 0 5.659 21.025zm70.18 4.517h-33.801c-14.085 0-25.543-11.459-25.543-25.542 0-14.084 11.459-25.543 25.543-25.543h33.801c14.085 0 25.542 11.459 25.542 25.543 0 14.085-11.458 25.542-25.542 25.542z"/><path d="M150.171 176.031c-13.334 0-24.181 10.847-24.181 24.18s10.847 24.18 24.181 24.18c13.333 0 24.179-10.847 24.179-24.18.001-13.333-10.845-24.18-24.179-24.18zm0 31.864c-4.238 0-7.686-3.448-7.686-7.685s3.449-7.685 7.686-7.685 7.683 3.447 7.683 7.685c.002 4.238-3.446 7.685-7.683 7.685zm-52.606-2.678c-13.334 0-24.181 10.847-24.181 24.18s10.847 24.18 24.181 24.18c13.333 0 24.179-10.847 24.179-24.18s-10.847-24.18-24.179-24.18zm0 31.864c-4.238 0-7.686-3.448-7.686-7.685 0-4.238 3.449-7.685 7.686-7.685 4.236 0 7.683 3.448 7.683 7.685s-3.447 7.685-7.683 7.685zM385.249 172.1a9.38 9.38 0 1 0 .002-18.76 9.38 9.38 0 0 0-.002 18.76z"/></svg>